<svg fill="none" viewBox="0 0 256 256" xmlns="http://www.w3.org/2000/svg"><path d="M218 256H40c-8.46-23.9-4.8-47.42 3.35-70.36 3.62-10.19 4.66-19.44 1.72-30-4.94-17.74-3.36-36-1.57-54.11.52-5.23 1.35-10.43 2.12-16.26 2.03 1.17 3.41 1.73 4.53 2.64 13.27 10.77 26.62 21.45 39.67 32.47 3.33 2.82 6.18 4.13 10.66 3.06 15.97-3.81 32.1-6.15 48.33-1.51 10.85 3.1 18.74-1.16 25.4-9.29a22.82 22.82 0 0 1 4.4-3.91c9.99-7.17 20.02-14.27 30.05-21.39.85-.6 1.77-1.11 2.79-1.74 3.88 16.54 3.87 32.84 2.91 49.16-.43 7.29-.09 14.99-2.4 21.72-3.17 9.25-2.38 17.46 1.14 26.11 9.73 23.9 10.78 48.44 4.9 73.41z" fill="#fff"/><path d="M218 256c5.88-24.97 4.83-49.51-4.89-73.41-3.52-8.65-4.31-16.87-1.14-26.11 2.31-6.73 1.97-14.43 2.4-21.72.96-16.32.97-32.62-2.91-49.16-1.02.63-1.94 1.14-2.79 1.74a6292.03 6292.03 0 0 0-30.05 21.39 22.82 22.82 0 0 0-4.4 3.91c-6.66 8.12-14.55 12.39-25.4 9.29-16.23-4.63-32.37-2.29-48.33 1.51-4.48 1.07-7.32-.25-10.66-3.06-13.06-11.02-26.4-21.71-39.67-32.47-1.11-.9-2.5-1.47-4.53-2.64-.77 5.83-1.6 11.03-2.12 16.26-1.8 18.11-3.38 36.37 1.57 54.11 2.94 10.56 1.9 19.81-1.72 30C35.2 208.58 31.54 232.1 40 256H23c-7.04-26.45-3.36-52.15 5.84-77.32 2.21-6.04 2.89-11.43.97-17.79-4.42-14.68-4.76-29.98-3.42-45.08 1.45-16.37 4.13-32.64 6.65-48.9 1.16-7.53 5.41-9.04 11.6-4.38 4.63 3.48 8.81 7.57 13.33 11.2 12.8 10.29 25.6 20.57 38.59 30.63 1.81 1.4 4.88 2.56 6.92 2.05 16.34-4.12 32.66-3.9 48.92-.11 3.96.92 6.14-.45 8.74-2.87 3.95-3.67 8.22-7.01 12.47-10.34 10.58-8.3 21.23-16.5 31.82-24.77 2.23-1.74 4.22-3.79 6.51-5.44 6.66-4.79 10.22-3.55 12.05 4.39 1.8 7.78 3.49 15.6 4.76 23.47a197.8 197.8 0 0 1-.56 66.13c-1.77 9.98-.77 18.1 2.49 27.17 8.42 23.46 8.09 47.65 4.32 71.94-5.67.02-11.33.02-17 .02z" fill="#000"/></svg>